<svg id="Ebene_1" xmlns="http://www.w3.org/2000/svg" viewBox="0 0 522.2 600"><style>.st0{fill:#EF301F;} .st1{fill:#FFFFFF;} .st2{fill:#0D603F;}</style><path class="st0" d="M517.6 146.6L265.7 1.2c-2.9-1.6-6.4-1.6-9.2 0L4.6 146.6c-2.8 1.6-4.6 4.8-4.6 8v290.8c0 3.3 1.8 6.4 4.6 8l251.9 145.4c1.5.8 3 1.2 4.6 1.2 1.6 0 3.3-.4 4.6-1.2l251.9-145.4c2.8-1.6 4.6-4.8 4.6-8V154.6c0-3.3-1.7-6.4-4.6-8z"/><path class="st1" d="M14.8 158.6L261.5 16.2l246.6 142.5v284.8L261.5 585.8 14.8 443.5"/><path class="st2" d="M314.7 328.9c-1.3.3-2.2.5-3.1.7-9 2.7-18.2 4.2-27.6 5.1-11.6 1.1-23.3 1.4-35 .8-5.1-.2-10.3-.5-15.4-1.2-7.2-1.1-14.3-2.6-21.4-3.9-1.9-.4-3.8-.7-5.8-1.1 0 .6-.1.8-.1 1.1.8 4.6 2.1 9.1 4.1 13.4.3.7 1.2 1.3 2 1.5 2.1.7 4.3 1.2 6.5 1.6 5.9 1.1 11.7 2.8 17.7 3.2 9.1.6 18.3.4 27.4.4 15.7.1 31.1-1.4 46-6.8.9-.3 1.5-.7 1.7-1.7.4-2 1-4 1.5-6 .6-2.2 1-4.5 1.5-7.1zm-9.2 42.9c.6.4 1.1.7 1.5 1 2.1 1.4 4.1 2.7 6.3 4 1.2.7 2.6 1.3 4 .7 2.9-1.2 5.2-3.1 6.3-6.2 2.6-7.5-5-16.1-11.3-15.2-3.3.4-6.5 1.2-8.9 3.6-2.1 2.1-4.1 4.2-6 6.5-6.7 8.5-12.1 17.9-17.2 27.4-.5.9-.5 1.6-.1 2.5 3.5 8.3 7 16.6 10.6 24.9.2.4.4.7.6 1.3.2-.7.3-1.2.4-1.7 2.4-10.5 4.8-21.1 7.4-31.6 1.5-5.8 3.6-11.5 6.4-17.2zM261.3 361c-.3.3-.5.4-.6.6-.7 1.2-1.5 2.3-2 3.5l-12.9 29.1c-.2.4-.2 1 0 1.4 4.5 9.2 9 18.3 13.5 27.5.2.5.6 1 1.1 1.6.6-1 1.1-1.7 1.5-2.5 4.3-8.9 8.7-17.8 12.9-26.8.2-.5.1-1.4-.1-2-3.6-9-7.3-18-10.9-27.1-.9-1.7-1.7-3.5-2.5-5.3zM229 420.9l.4.1c.6-.9 1.3-1.8 1.7-2.8 3.2-7.1 6.3-14.3 9.5-21.4.2-.4 0-1-.2-1.4-2.6-5.3-5.2-10.6-8-15.7-3.5-6.4-7.4-12.6-12.8-17.7-2.1-2-4.4-3.7-7.1-4.7-5.2-1.9-11 .5-13.7 5.4-2.5 4.8-1.2 10.3 3.4 13.7 2.3 1.7 4.8 2 7.2.4 1.8-1.2 3.4-2.6 5.1-3.9.4-.3.8-.6 1.4-1 1.6 4.1 3.2 7.9 4.5 11.9 3.1 9.3 4.8 18.9 6.7 28.5.7 2.8 1.3 5.7 1.9 8.6zm28.8-65.4c-.5-.2-.9-.3-1.2-.3-1.9-.1-3.7-.4-5.6-.4-10.3.1-20.5-1.2-30.6-3.3-2.4-.5-4.9-1-7.3-1.4-.6-.1-1.6.3-1.7.7-.1.7.2 1.5.5 2.2.1.2.6.4 1 .4 2.8.2 5.1 1.5 6.9 3.4 2.7 2.8 5.5 5.6 7.7 8.7 4.3 6.4 8.3 13 12.4 19.5.9 1.4 1.9 2.7 3.1 4.4 5.5-11.4 10.4-22.5 14.8-33.9zm19.6 33.5l.5-.1c.4-.6.9-1.2 1.3-1.8 4.3-6.7 8.4-13.5 12.8-20.1 4-6 8.7-11.3 15.3-14.6.9-.5 1.8-1.2 2.5-2 .3-.3.3-.9.5-1.3-.4-.1-.9-.3-1.3-.2-1.5.3-3 .7-4.5 1.1-11.4 2.6-22.9 3.9-34.6 4.8-2 .1-3.9.5-6.1.7 4.7 11.4 9.2 22.4 13.6 33.5zm-35.1-144.3c.6.5.9.9 1.3 1.1 5.5 3.6 11 7.1 16.5 10.7.9.6 1.8.6 2.7 0l17.1-10.5c.4-.2.7-.5 1.1-.9-.7-.6-1.2-1.1-1.8-1.4l-16.2-9.9c-1.2-.7-2.2-.7-3.4 0-4.3 2.6-8.6 5.1-12.9 7.8-1.4.9-2.7 2-4.4 3.1zm14.3 15.2c-.4-.3-.6-.5-.8-.6-5.8-3.7-11.5-7.3-17.2-11-.9-.6-1.7-.2-2.5.2-4.8 2.8-9.6 5.7-14.3 8.5-.9.6-1.8 1.3-2.8 2 .3.3.4.6.6.8.6.5 1.1 1.2 1.8 1.6 5.3 3.5 10.6 7.1 15.9 10.5.5.3 1.5.1 2-.2 5-3.2 9.9-6.5 14.9-9.8.7-.6 1.4-1.3 2.4-2zm-14.8 14.9c.6.5 1 .9 1.4 1.1 5.1 3.3 10.3 6.6 15.4 10 1.5 1 2.8 1 4.2 0l14.7-10.5c.6-.5 1.3-.9 2-1.3-1-1-1.5-1.5-2-1.9-5.1-3.2-10.2-6.3-15.3-9.4-.4-.2-1.2-.2-1.6.1-5.2 3.1-10.3 6.3-15.4 9.5-1.1.7-2.1 1.5-3.4 2.4zm62.6-15.8c-.6-.5-1-1-1.5-1.3-5-3.1-10-6.1-15-9.1-1.3-.8-2.4-.7-3.7.1-5.5 3.4-11 6.7-16.5 10.1-.5.3-.9.8-1.4 1.2.4.4.7.7 1 .9 5 3.1 10.1 6.2 15.1 9.4 1.4.9 2.7.8 4.1 0 5.3-3.3 10.7-6.5 16-9.8.8-.5 1.3-1 1.9-1.5zm-36.8-28.7c.7.8 1.3 1.8 2.2 2.3 5.1 3.3 10.3 6.5 15.5 9.7.4.2 1.2.3 1.5 0 5.2-3.3 10.5-6.7 15.7-10.2 1.5-1 1.4-1.7-.2-2.7l-16.8-10.5c-.7-.4-1.1-.4-1.7 0l-12 7.5c-1.1.7-2.1 1.5-3 2.3-.5.3-.7.9-1.2 1.6zm-47.7.6c1.8 1.3 3.3 2.5 4.9 3.6 3.9 2.4 8 4.7 12 7 .8.5 1.7.6 2.6 0 4.5-3 9-5.9 13.4-8.9 1.1-.7 2.1-1.6 3.2-2.5-.3-.3-.4-.5-.6-.6L238.6 219c-.3-.2-.9-.2-1.2 0-5.2 3.3-10.4 6.7-15.5 10.1-.6.4-1.2 1.1-2 1.8zm106.6 41.3c-.5-.4-.8-.8-1.3-1.1-5-3.2-10-6.4-15.1-9.5-.4-.2-1.2-.1-1.6.2-4.2 2.6-8.5 5.2-12.7 7.8-1.1.7-2.2 1.4-3.2 2.2-2.2 1.7-2.1 2.7 0 4.4.3.2.5.4.8.6 3.6 2.2 7.2 4.4 10.7 6.7 1.5.9 2.7.9 4.2 0 5.4-3.3 10.9-6.6 16.3-9.9.7-.3 1.3-.8 1.9-1.4zm-93.1-27.5c-6.3-3.9-12.2-7.5-18.1-11.1-.2-.1-.7-.1-1 .1-5.6 3.6-11.2 7.3-16.8 11-.4.2-.7.6-1.1 1 .5.4.8.9 1.2 1.1 4.6 2.9 9.2 5.9 13.8 8.8 1.4.9 2.8.8 4.2 0 5.9-3.7 11.6-7.2 17.8-10.9zm8.6-28.3c.3.2.4.3.5.4 5.9 3.6 11.7 7.2 17.6 10.7.4.2 1.1.2 1.5-.1 5.8-3.5 11.5-7.1 17.3-10.7.2-.2.5-.4.8-.6-6.4-3.7-12.6-7.4-18.9-11-.4-.2-1.1 0-1.5.2-4.2 2.6-8.3 5.2-12.5 7.8-1.5 1-3.1 2.2-4.8 3.3zm23.4 73c.1.2.1.3.2.4 5 3.7 10.1 7.2 16 9.6.6.2 1.6.1 2.2-.3 5.8-3.5 11.5-7.1 17.2-10.7.3-.2.6-.5 1-.8-.6-.4-.9-.7-1.4-1-4.7-2.9-9.5-5.7-14.2-8.6-1.1-.7-2.1-.7-3.3 0-5.4 3.4-10.8 6.7-16.2 10.1-.6.4-1.1.9-1.5 1.3zm62.2-44.9c-.3-.2-.4-.4-.6-.5-4.6-2.7-9.2-5.3-13.7-8-3.3-2-6.4-1.9-9.6.1-3.7 2.4-7.4 4.7-11.2 7-.8.5-1.6 1-2.4 1.6.4.3.6.4.8.6 5.7 3.4 11.3 6.7 17 10.2 1.1.7 2 .7 3 0 5.1-3.4 10.3-6.7 15.4-10 .4-.3.8-.6 1.3-1zm-129.9 27.7c.2.3.2.4.3.4 6 4.2 12.1 8.4 18.2 12.5.2.2.8.1 1.1-.1 4.7-2.9 9.3-5.8 13.9-8.7.7-.4 1.3-1 1.9-1.5-.4-.3-.5-.5-.7-.6-5.9-3.7-11.9-7.5-17.9-11.1-.6-.4-1.8-.3-2.5.1-4.1 2.4-8.2 4.9-12.3 7.4-.6.5-1.3 1.1-2 1.6zm59.1 17.3c-6.5-4-12.5-7.8-18.6-11.5-.4-.2-1.2-.1-1.6.2-4.9 3-9.8 6.1-14.6 9.2-.3.2-.5.4-1 .9 6.1 3.6 11.9 7.1 17.8 10.6.9.5 1.6.5 2.5 0 5-3.2 10.1-6.2 15.5-9.4zm-12.6 13.1c.5.4.8.5 1.1.7 4.9 3.1 9.7 6.1 14.6 9.1.5.3 1.5.2 2.1-.1 2.4-1.3 4.9-2.6 7.2-4.1 2.2-1.4 4.3-3 6.4-4.6 1.2-.9 1-1.5-.2-2.2-2.9-1.8-5.7-3.6-8.6-5.4-2.1-1.3-4.3-2.6-6.4-4-5.4 3.5-10.6 6.9-16.2 10.6zm54.1-97.7c-.5-.4-.9-.8-1.3-1.1-5.6-3.5-11.2-7-16.8-10.4-.4-.2-1.1-.2-1.5.1l-8.1 4.8c-1.3.8-2.5 1.8-3.7 2.8-.9.7-1.1 1.5.1 2.2 5.2 3.2 10.5 6.3 15.7 9.5.9.5 1.8.5 2.6 0 3.8-2.3 7.6-4.5 11.5-6.8.5-.3.9-.7 1.5-1.1zm-20.9 196.2c-5 8.9-8.9 18.1-13.2 27.2 8.3-.2 16.3.4 24.4-.8-3.3-9-7-17.6-11.2-26.4zm10.8-184.9c6.9 4 13.6 7.8 20.2 11.5.4.2 1.1 0 1.5-.2 2.3-1.5 4.7-3 6.9-4.5 1-.7 1.9-1.4 2.7-2.3.9-.9 1-2 0-3-.7-.7-1.5-1.5-2.4-2-4.4-2.7-8.9-5.3-13.4-7.9-.3-.2-.9-.2-1.1-.1-4.6 2.8-9.3 5.5-14.4 8.5zM214.1 228c.5-.2 1.1-.4 1.5-.6 4.8-2.8 9.6-5.7 14.4-8.5.5-.3 1-.7 1.4-1.2.8-.8.8-1.6 0-2.3-.4-.4-.8-.8-1.3-1.1-3.5-2.1-6.9-4.3-10.4-6.3-.4-.2-1.1-.1-1.5.1-2 1.2-3.9 2.4-5.8 3.6-2.9 1.9-5.8 3.7-8.5 5.7-2.4 1.8-2.4 3.2.1 4.8 2.9 1.9 6 3.6 9.1 5.3.2.2.6.3 1 .5zm29.4 173.6c-.1 0-.3.1-.4.1-3.7 8.6-7.3 17.3-11 25.9 3.3 1 21.9.7 24.5-.5l-13.1-25.5zm-19.8-195.8c4.3 2.5 8.3 4.9 12.4 7.3 1.2.7 2.5.5 3.6-.2 4.6-2.9 9.2-5.8 13.7-8.8.7-.4 1.2-1 1.9-1.7-.6-.5-1-.9-1.5-1.2-3.6-2.3-7.3-4.5-11-6.8-1-.6-2-.6-3 0-4.7 3.2-9.4 6.3-14 9.5-.6.5-1.1 1.1-2.1 1.9zm25.6 125.4h23V318h-23v13.2zM246 190.7l.2.8c4.4 2.7 8.8 5.4 13.3 8.1.3.2.9.1 1.3-.1 4-2.4 7.9-4.8 11.8-7.3 1.8-1.1 1.8-1.9 0-3-4.2-2.6-8.4-5.1-12.7-7.5-.3-.2-.8-.1-1.1 0-3.5 2.4-7 4.8-10.5 7.3-.7.5-1.5 1.1-2.3 1.7zm80.8 162.8c3-3.9 5.8-7.7 8.6-11.4.8-1 .6-1.7-.4-2.4-4.4-3.1-8.7-6.2-13.1-9.3-.6-.4-1.3-.8-2.3-1.4-1.4 5-2.7 9.7-4 14.5-.1.4.4 1.1.8 1.5 3.4 2.8 6.8 5.5 10.4 8.5zm-124.9-23.3c-.7.3-1.3.5-1.7.8-4 2.8-8 5.7-12 8.5-1.3.9-1.5 2.1-.7 3.4 2.1 3.2 4.3 6.4 6.5 9.6.6.9 1.1.9 2 .3 3-2.2 6.1-4.3 9.2-6.5.4-.3.6-1 .5-1.5-.7-3.1-1.4-6.2-2.2-9.3-.5-1.7-1.1-3.4-1.6-5.3zm84.5-28c.2.4.3.6.4.7 2.6 2 5.2 3.9 7.9 5.9.2.2.7.1 1-.1 4.7-2.8 9.5-5.5 14.1-8.4 1.3-.8 2.4-2.1 3.5-3.3 1.1-1.2 1.1-1.7-.2-2.7-.8-.6-1.6-1.1-2.4-1.8-2.4-1.9-4.9-2.1-7.6-.6l-8.1 4.8c-2.8 1.8-5.6 3.7-8.6 5.5zm-50.3.1c-6.4-3.9-12.5-7.5-18.6-11.1-.4-.2-1.1-.2-1.5 0-2.1 1.1-4.2 2.3-6.2 3.5-1.9 1.1-2 1.8-.4 3.4 4.3 4.1 9.3 7.2 14.9 9.2 1.8.7 3.7.6 5.3-.4 2.1-1.3 4.1-2.9 6.5-4.6zm53.7-121.2c-.3-.4-.4-.6-.6-.7-4.2-2.9-8.5-5.9-12.7-8.8-.3-.2-.9-.1-1.2.1l-8.7 4.8c-.7.4-1.4.9-2.4 1.7.7.5 1.1.8 1.6 1.1 4.1 2.6 8.1 5.2 12.2 7.8.3.2 1 .3 1.3.1 3.4-1.9 6.9-4 10.5-6.1zm-6.2 9c.5.4 1 .8 1.4 1.1 4.5 3 9 5.9 13.5 8.9.9.6 2 1.1 3 1.5.7.3 1.6.4 2.3.2 3.3-.9 3.9-2.7 1.7-5.2-3.6-4.2-7.4-8.2-11.1-12.3-.2-.2-1-.4-1.3-.2-2.7 1.5-5.3 3.1-8 4.7-.4.3-.9.8-1.5 1.3zm-28-11.5c-3.2-1.9-6.1-3.7-9.1-5.2-.7-.4-2-.3-2.6.1-3.7 2.5-7.3 5.1-11 7.8-1.1.8-1 1.6.1 2.3 2.5 1.6 5 3.1 7.5 4.6.3.2.9 0 1.2-.2 1.8-1.2 3.6-2.5 5.5-3.7 2.7-1.8 5.4-3.6 8.4-5.7zM193 269.5c.4-.2.6-.2.9-.4 4.3-2.8 8.6-5.5 12.8-8.3 1.4-.9 1.4-1.1.2-2.2-3.9-3.4-8.2-6.2-12.8-8.4-1.6-.7-2-.5-2.2 1.3-.8 6 0 12 1.1 18zM329.7 249c-5.7 2.8-10.7 5.8-15.6 9.6 4.3 3.4 8.6 6.2 13.5 8.2 1.5.6 2.4-.1 2.5-1.7.2-3.5.2-7 .2-10.5-.1-1.8-.4-3.5-.6-5.6zm-102.2-63.7c-3.1 3.3-6.2 6.4-9.1 9.7-1.1 1.2-1.9 2.6-2.7 3.9-.6.9-.3 1.7.6 2.4 1.7 1.2 3.4.9 5-.1 5.1-3.3 10.2-6.7 15.2-10 .1 0 .1-.2.1-.3l-9.1-5.6zm-16.6 45.9c-2.7-1.7-5.1-3.2-7.5-4.7-3.5-2.1-4.8-1.7-6 2.3-1.1 3.6-2.1 7.3-3.1 10.9-.1.4-.1.9-.1 1.3.1.1.3.2.4.4 5.4-3.4 10.7-6.7 16.3-10.2zm101.9-.4c4.3 2.6 8.3 5.1 12.3 7.5.6.3 1.6.6 2 .3.4-.3.6-1.4.5-2-.5-4-2-7.7-3.9-11.2-.4-.7-.9-1-1.7-.5-2.9 1.9-5.9 3.8-9.2 5.9zm-117.7 46c.3.9.4 1.7.7 2.3 1.5 3 3.1 6 4.7 8.9.6 1 1.4 2 2.2 2.9 1.3 1.5 2 1.6 3.8.8.9-.4 1.7-.8 2.5-1.3 2.9-1.7 3-2.2.4-4.1-4.4-3.2-8.9-6-13.4-9-.1-.3-.3-.3-.9-.5zm92.9 33.8c-.8-1.9-2.2-2.7-3.5-3.6-1.7-1.2-3.4-1.3-5.1-.2-3.4 2.2-6.7 4.4-10 6.6-.2.1-.2.3-.5.7 6.6 0 12.9-1.1 19.1-3.5zm-35.8 3.4l.2-.5c-.4-.3-.7-.7-1.1-1-2.8-1.9-5.6-3.9-8.6-5.6-3-1.8-6.2-.9-8.4 1.9-.6.8-.5 1.4.3 1.9.7.4 1.4.7 2.2.9 3.1.6 6.2 1.2 9.4 1.7 2.1.3 4 .5 6 .7zm58.4-26.5l3.9 2.6c2.6 1.7 3.7 1.6 5.5-1 2-2.8 3.7-5.9 5.4-8.8.2-.4.3-.9.4-1.4l-.3-.3-14.9 8.9zM261 169.2c-2.3.2-4.5.4-6.7.6-.3 0-.6.2-1 .2-.6.1-1.1.3-.8 1.1.6 1.5 5.8 4.6 7.4 4.4.2 0 .4 0 .5-.1 2.3-1.3 4.6-2.6 6.8-4.1 1-.7.8-1.4-.5-1.6-1.8-.3-3.8-.4-5.7-.5zm52.5 39.3c0-2.3-1.1-3.7-2.5-5-.4-.3-1.5-.5-1.8-.2-.4.4-.6 1.4-.4 1.9.9 1.8 2.6 2.6 4.7 3.3zm-105.5.8l.3.3c2.1-.9 4.1-2.1 5.5-4 .2-.2-.1-1.1-.4-1.3-.5-.4-1.1-1-1.8-.1-1 1.3-2 2.5-3 3.7-.2.5-.4 1-.6 1.4z"/><path class="st2" d="M314.7 328.9c-.5 2.6-.9 4.9-1.4 7.1-.4 2-1.1 4-1.5 6-.2 1-.8 1.4-1.7 1.7-14.9 5.3-30.4 6.9-46 6.8-9.1 0-18.3.2-27.4-.4-5.9-.4-11.8-2-17.7-3.2-2.2-.4-4.4-1-6.5-1.6-.8-.2-1.7-.9-2-1.5-2-4.2-3.3-8.7-4.1-13.4 0-.3 0-.5.1-1.1 2 .4 3.9.7 5.8 1.1 7.1 1.3 14.2 2.9 21.4 3.9 5.1.8 10.3 1 15.4 1.2 11.7.6 23.3.3 35-.8 9.3-.9 18.6-2.4 27.6-5.1.8-.3 1.7-.4 3-.7zm-9.2 42.9c-2.9 5.6-4.9 11.4-6.4 17.4-2.5 10.5-4.9 21-7.4 31.6-.1.5-.2 1-.4 1.7-.3-.6-.5-.9-.6-1.3-3.5-8.3-7-16.6-10.6-24.9-.4-.9-.4-1.6.1-2.5 5.2-9.5 10.5-18.9 17.2-27.4 1.8-2.3 3.9-4.4 6-6.5 2.4-2.5 5.6-3.2 8.9-3.6 6.3-.8 13.9 7.7 11.3 15.2-1.1 3.1-3.4 4.9-6.3 6.2-1.4.6-2.8.1-4-.7-2.1-1.3-4.2-2.7-6.3-4-.4-.5-.9-.8-1.5-1.2zM261.3 361c.8 1.9 1.6 3.6 2.3 5.4 3.7 9 7.3 18 10.9 27.1.2.6.4 1.4.1 2-4.3 9-8.6 17.9-12.9 26.8-.4.8-.9 1.5-1.5 2.5-.4-.6-.8-1.1-1.1-1.6-4.5-9.1-9-18.3-13.5-27.5-.2-.4-.2-1 0-1.4l12.9-29.1c.6-1.2 1.3-2.4 2-3.5.3-.3.5-.4.8-.7zM229 420.9l-1.8-8.7c-1.9-9.6-3.6-19.2-6.7-28.5-1.3-3.9-3-7.8-4.6-11.9-.6.5-1 .7-1.4 1-1.7 1.3-3.3 2.8-5.1 3.9-2.4 1.6-4.9 1.3-7.2-.4-4.6-3.4-5.9-8.9-3.4-13.7 2.6-4.9 8.4-7.2 13.7-5.4 2.7 1 5 2.7 7.1 4.7 5.4 5.1 9.3 11.3 12.8 17.7 2.8 5.2 5.4 10.5 8 15.7.2.4.3 1 .2 1.4-3.1 7.2-6.3 14.3-9.5 21.4-.4 1-1.1 1.9-1.7 2.8-.1.1-.3 0-.4 0z"/><path class="st2" d="M257.8 355.5c-4.4 11.4-9.3 22.6-14.9 33.9-1.2-1.7-2.2-3-3.1-4.4-4.1-6.5-8.1-13.2-12.4-19.5-2.2-3.2-5-6-7.7-8.7-1.8-1.9-4.2-3.2-6.9-3.4-.3 0-.9-.2-1-.4-.3-.7-.6-1.5-.5-2.2.1-.4 1.2-.8 1.7-.7 2.4.4 4.9.9 7.3 1.4 10.1 2.1 20.3 3.4 30.6 3.3 1.9 0 3.7.2 5.6.4.4 0 .7.1 1.3.3zm19.6 33.5c-4.5-11.1-9-22.1-13.6-33.5 2.2-.3 4.1-.6 6.1-.7 11.6-.9 23.2-2.2 34.6-4.8 1.5-.4 3-.8 4.5-1.1.4-.1.9.1 1.3.2-.2.5-.2 1-.5 1.3-.8.7-1.6 1.5-2.5 2-6.6 3.3-11.3 8.6-15.3 14.6-4.4 6.6-8.6 13.4-12.8 20.1-.4.6-.8 1.2-1.3 1.8-.1 0-.3.1-.5.1zm-35.1-144.3c1.6-1.1 3-2.2 4.5-3.1 4.3-2.6 8.6-5.1 12.9-7.8 1.2-.7 2.2-.8 3.4 0l16.2 9.9c.6.4 1.1.9 1.8 1.4-.4.4-.8.7-1.1.9l-17.1 10.5c-1 .6-1.8.6-2.7 0-5.5-3.6-11-7.1-16.5-10.7-.5-.2-.8-.6-1.4-1.1zm14.3 15.2c-1 .8-1.7 1.4-2.5 1.9-4.9 3.3-9.9 6.6-14.8 9.8-.5.3-1.5.5-2 .2-5.3-3.4-10.6-7-15.9-10.5-.7-.4-1.2-1-1.8-1.6-.2-.2-.3-.4-.6-.8 1-.7 1.8-1.4 2.8-2 4.8-2.9 9.6-5.7 14.3-8.5.8-.5 1.6-.8 2.5-.2 5.7 3.7 11.5 7.3 17.2 11 .2.2.4.4.8.7zm-14.8 14.9c1.3-.9 2.3-1.7 3.4-2.4 5.1-3.2 10.3-6.4 15.4-9.5.4-.2 1.2-.3 1.6-.1 5.1 3.1 10.2 6.3 15.3 9.4.6.4 1.1.8 2 1.9-.7.4-1.4.8-2 1.3l-14.7 10.5c-1.4 1-2.7 1-4.2 0-5.1-3.4-10.3-6.7-15.4-10-.4-.2-.8-.6-1.4-1.1zm62.6-15.8c-.6.6-1.1 1.1-1.7 1.4-5.3 3.3-10.7 6.5-16 9.8-1.4.8-2.7.9-4.1 0-5-3.1-10.1-6.2-15.1-9.4-.3-.2-.6-.5-1-.9.5-.5.9-.9 1.4-1.2 5.5-3.4 11-6.7 16.5-10.1 1.2-.8 2.4-.8 3.7-.1 5 3.1 10 6.1 15 9.1.4.4.8.9 1.3 1.4zm-36.8-28.7c.5-.7.7-1.3 1.1-1.6 1-.8 2-1.6 3-2.3l12-7.5c.6-.4 1.1-.4 1.7 0l16.8 10.5c1.6 1 1.7 1.7.2 2.7-5.2 3.5-10.4 6.8-15.7 10.2-.4.2-1.1.2-1.5 0-5.2-3.2-10.4-6.4-15.5-9.7-.8-.5-1.4-1.5-2.1-2.3zm-47.7.6c.8-.7 1.4-1.3 2.1-1.8 5.1-3.4 10.3-6.8 15.5-10.1.3-.2.9-.2 1.2 0l16.8 10.5c.2.1.3.3.6.6-1.1.9-2.1 1.8-3.2 2.5-4.5 3-9 5.9-13.4 8.9-1 .6-1.8.5-2.6 0-4-2.3-8-4.6-12-7-1.7-1.1-3.3-2.4-5-3.6zm106.6 41.3c-.7.6-1.2 1.1-1.8 1.5-5.4 3.3-10.9 6.6-16.3 9.9-1.4.9-2.7.9-4.1 0-3.5-2.3-7.2-4.5-10.7-6.7-.3-.2-.5-.4-.8-.6-2.2-1.7-2.2-2.6 0-4.4 1-.8 2.1-1.5 3.2-2.2 4.2-2.6 8.4-5.3 12.7-7.8.4-.3 1.2-.4 1.6-.2 5.1 3.1 10.1 6.3 15.1 9.5.3.2.6.6 1.1 1zm-93.1-27.5c-6.1 3.7-11.9 7.3-17.7 10.8-1.4.9-2.8.9-4.2 0-4.6-2.9-9.2-5.8-13.8-8.8-.4-.3-.8-.7-1.2-1.1.4-.4.7-.7 1.1-1 5.6-3.7 11.2-7.4 16.8-11 .2-.2.8-.2 1-.1 5.7 3.6 11.6 7.2 18 11.2zm8.6-28.3c1.7-1.2 3.2-2.3 4.8-3.3 4.1-2.6 8.3-5.2 12.5-7.8.4-.2 1.1-.4 1.5-.2 6.3 3.6 12.5 7.3 18.9 11-.3.3-.5.5-.8.6-5.8 3.6-11.5 7.1-17.3 10.7-.4.2-1.1.3-1.5.1-5.9-3.5-11.8-7.1-17.6-10.7-.1-.1-.2-.2-.5-.4zm23.4 73c.5-.4 1-.9 1.5-1.3 5.4-3.4 10.8-6.7 16.2-10.1 1.1-.7 2.1-.7 3.3 0 4.7 2.9 9.5 5.7 14.2 8.6.4.3.8.6 1.4 1-.4.3-.7.6-1 .8-5.7 3.6-11.4 7.2-17.2 10.7-.6.4-1.6.5-2.2.3-5.8-2.3-11-5.8-16-9.6-.1 0-.1-.1-.2-.4zm62.2-44.9c-.5.4-.9.7-1.3.9-5.1 3.3-10.3 6.7-15.4 10-1.1.7-1.9.7-3 0-5.6-3.4-11.3-6.8-17-10.2-.2-.1-.4-.3-.8-.6.9-.6 1.6-1.1 2.4-1.6 3.7-2.3 7.5-4.6 11.2-7 3.2-2.1 6.3-2.1 9.6-.1 4.5 2.7 9.1 5.3 13.7 8 .1.3.3.4.6.6zm-129.9 27.7c.7-.6 1.4-1.2 2.1-1.6 4.1-2.5 8.1-5 12.3-7.4.6-.4 1.9-.5 2.5-.1 6 3.6 11.9 7.4 17.9 11.1.2.1.3.3.7.6-.7.5-1.3 1.1-1.9 1.5-4.6 2.9-9.3 5.8-13.9 8.7-.3.2-.9.2-1.1.1-6.1-4.1-12.1-8.3-18.2-12.5-.2 0-.2-.1-.4-.4zm59.1 17.3c-5.4 3.2-10.5 6.3-15.6 9.3-.9.5-1.6.5-2.5 0-5.9-3.5-11.7-7-17.8-10.6.5-.4.7-.7 1-.9 4.9-3.1 9.7-6.2 14.6-9.2.4-.3 1.2-.4 1.6-.2 6.2 3.8 12.3 7.6 18.7 11.6zm-12.6 13.1c5.6-3.6 10.8-7.1 16.1-10.6 2.1 1.3 4.3 2.6 6.4 4 2.9 1.8 5.7 3.6 8.6 5.4 1.2.8 1.4 1.3.2 2.2-2.1 1.6-4.2 3.2-6.4 4.6-2.3 1.5-4.7 2.8-7.2 4.1-.6.3-1.6.4-2.1.1-4.9-3-9.8-6.1-14.6-9.1-.2-.2-.4-.4-1-.7zm54.1-97.7c-.6.5-1 .9-1.4 1.1-3.8 2.3-7.6 4.5-11.5 6.8-.9.5-1.7.6-2.6 0-5.2-3.2-10.5-6.4-15.7-9.5-1.2-.7-1-1.5-.1-2.2 1.2-1 2.4-2 3.7-2.8 2.6-1.7 5.3-3.3 8.1-4.8.4-.2 1.1-.3 1.5-.1 5.6 3.4 11.2 6.9 16.8 10.4.3.3.6.6 1.2 1.1zm-20.9 196.2c4.3 8.7 7.9 17.3 11.2 26.4-8.2 1.2-16.2.6-24.4.8 4.3-9.1 8.1-18.2 13.2-27.2zm10.8-184.9c5-3 9.7-5.7 14.5-8.5.3-.2.8-.1 1.1.1 4.5 2.6 9 5.2 13.4 7.9.9.5 1.6 1.3 2.4 2 .9 1 .9 2.1 0 3-.8.8-1.7 1.6-2.7 2.3-2.3 1.6-4.6 3.1-6.9 4.5-.4.2-1.1.4-1.5.2-6.7-3.7-13.4-7.5-20.3-11.5zM214.1 228c-.4-.1-.8-.2-1.1-.4-3-1.8-6.1-3.4-9.1-5.3-2.5-1.6-2.5-3-.1-4.8 2.7-2.1 5.6-3.9 8.5-5.7 1.9-1.3 3.9-2.5 5.8-3.6.4-.2 1.1-.3 1.5-.1 3.5 2.1 7 4.2 10.4 6.3.5.3.9.7 1.3 1.1.8.7.8 1.5 0 2.3-.4.4-.9.8-1.4 1.2-4.8 2.9-9.6 5.7-14.4 8.5-.3.1-.9.3-1.4.5zm29.4 173.6l13.1 25.6c-2.6 1.2-21.2 1.5-24.5.4l11-26c.1.1.2.1.4 0zm-19.8-195.8c1-.8 1.5-1.4 2.2-1.8 4.7-3.2 9.4-6.4 14-9.5 1-.7 2-.7 3 0 3.6 2.3 7.3 4.5 11 6.8.5.3.9.7 1.5 1.2-.7.6-1.3 1.2-1.9 1.7-4.6 2.9-9.1 5.9-13.7 8.8-1.1.7-2.4.9-3.6.2-4.2-2.4-8.2-4.8-12.5-7.4zm25.6 125.4V318h23v13.2h-23zM246 190.7l2.4-1.8c3.5-2.4 7-4.9 10.5-7.3.3-.2.8-.2 1.1 0 4.2 2.5 8.5 4.9 12.7 7.5 1.8 1.1 1.8 1.8 0 3-3.9 2.5-7.9 4.9-11.8 7.3-.3.2-1 .3-1.3.1-4.5-2.7-8.9-5.4-13.3-8.1l-.3-.7zm80.8 162.8c-3.6-2.9-7-5.6-10.4-8.4-.4-.3-.9-1.1-.8-1.5 1.2-4.8 2.6-9.5 4-14.5.9.6 1.6.9 2.3 1.4 4.4 3.1 8.7 6.2 13.1 9.3 1 .7 1.2 1.4.4 2.4-2.8 3.6-5.6 7.3-8.6 11.3zm-124.9-23.3c.5 1.9 1.1 3.6 1.5 5.3.8 3.1 1.5 6.2 2.2 9.3.1.5-.1 1.2-.5 1.5-3 2.2-6.1 4.3-9.2 6.5-.8.6-1.4.6-2-.3-2.2-3.2-4.4-6.4-6.5-9.6-.9-1.3-.6-2.5.7-3.4 4-2.8 8-5.7 12-8.5.5-.3 1-.5 1.8-.8zm84.5-28c2.9-1.9 5.8-3.7 8.6-5.5l8.1-4.8c2.6-1.5 5.2-1.4 7.6.6.8.6 1.6 1.1 2.4 1.8 1.3 1 1.4 1.5.2 2.7-1.1 1.2-2.1 2.4-3.5 3.3-4.6 2.9-9.4 5.6-14.1 8.4-.3.2-.8.3-1 .1-2.6-1.9-5.3-3.9-7.9-5.9-.1-.1-.2-.3-.4-.7zm-50.3.1c-2.4 1.7-4.4 3.2-6.6 4.6-1.6 1-3.5 1.1-5.3.4-5.6-2.1-10.6-5.1-14.9-9.2-1.6-1.5-1.5-2.2.4-3.4 2-1.2 4.1-2.4 6.2-3.5.4-.2 1.2-.3 1.5 0 6.2 3.6 12.3 7.3 18.7 11.1zm53.7-121.2c-3.6 2.1-7.1 4.2-10.6 6.1-.3.2-1 .1-1.3-.1-4.1-2.6-8.1-5.2-12.2-7.8-.5-.3-.9-.6-1.6-1.1 1.1-.8 1.7-1.3 2.4-1.7 2.9-1.6 5.8-3.3 8.7-4.8.3-.2 1-.3 1.2-.1 4.3 2.9 8.5 5.8 12.7 8.8.2.1.3.3.7.7zm-6.2 9c.6-.5 1.1-.9 1.6-1.3 2.6-1.6 5.3-3.2 8-4.7.3-.2 1-.1 1.3.2 3.7 4.1 7.5 8.1 11.1 12.3 2.2 2.5 1.5 4.4-1.7 5.2-.7.2-1.6 0-2.3-.2-1-.4-2.1-.9-3-1.5-4.5-2.9-9-5.9-13.5-8.9-.6-.3-1-.7-1.5-1.1zm-28-11.5c-3 2-5.7 3.9-8.3 5.7-1.8 1.2-3.6 2.5-5.5 3.7-.3.2-.9.4-1.2.2-2.5-1.5-5-3.1-7.5-4.6-1.1-.7-1.2-1.5-.1-2.3 3.6-2.6 7.3-5.3 11-7.8.6-.4 1.9-.5 2.6-.1 2.9 1.6 5.8 3.4 9 5.2zM193 269.5c-1.1-6.1-1.9-12-1.2-18 .2-1.8.6-2 2.2-1.3 4.7 2.2 9 5 12.8 8.4 1.2 1 1.2 1.3-.2 2.2-4.3 2.8-8.5 5.5-12.8 8.3-.1.2-.4.3-.8.4zM329.7 249c.2 2.1.5 3.8.5 5.6 0 3.5 0 7-.2 10.5-.1 1.7-1 2.3-2.5 1.7-4.8-2-9.1-4.8-13.5-8.2 5-3.8 10-6.8 15.7-9.6zm-102.2-63.7c3.2 1.9 6.1 3.7 9.1 5.5-.1.1-.1.3-.1.3-5.1 3.3-10.1 6.7-15.2 10-1.6 1-3.3 1.3-5 .1-1-.7-1.2-1.4-.6-2.4.9-1.3 1.7-2.7 2.7-3.9 2.9-3.2 6-6.3 9.1-9.6zm-16.6 45.9c-5.5 3.5-10.9 6.8-16.3 10.2l-.4-.4c0-.4 0-.9.1-1.3 1-3.6 2-7.3 3.1-10.9 1.2-4 2.4-4.4 6-2.3 2.4 1.5 4.8 3 7.5 4.7zm101.9-.4c3.3-2.1 6.3-4 9.3-5.9.8-.5 1.3-.3 1.7.5 1.9 3.5 3.3 7.2 3.9 11.2.1.7 0 1.7-.5 2-.4.3-1.5 0-2-.3-4.1-2.4-8.1-4.9-12.4-7.5zm-117.7 46c.5.2.8.3 1 .4 4.5 3 9 5.9 13.4 9 2.7 1.9 2.5 2.4-.4 4.1-.8.5-1.6.9-2.5 1.3-1.8.8-2.5.7-3.8-.8-.8-.9-1.7-1.8-2.2-2.9-1.6-2.9-3.2-5.9-4.7-8.9-.3-.6-.5-1.3-.8-2.2zm92.9 33.8c-6.2 2.4-12.4 3.6-19.1 3.5.2-.3.3-.6.5-.7 3.3-2.2 6.7-4.5 10-6.6 1.7-1.1 3.4-1 5.1.2 1.2.9 2.7 1.7 3.5 3.6zm-35.8 3.4c-2-.2-4-.4-6-.7-3.1-.5-6.3-1.1-9.4-1.7-.8-.1-1.5-.5-2.2-.9-.8-.5-.9-1.1-.3-1.9 2.1-2.8 5.4-3.7 8.4-1.9 2.9 1.7 5.7 3.7 8.6 5.6.4.3.7.7 1.1 1l-.2.5zm58.4-26.5l15-9 .3.3c-.1.5-.2 1-.4 1.4-1.8 3-3.5 6-5.4 8.8-1.8 2.6-2.9 2.6-5.5 1-1.3-.7-2.5-1.5-4-2.5zM261 169.2c1.9.2 3.9.2 5.8.5 1.3.2 1.5.9.5 1.6-2.2 1.5-4.5 2.7-6.8 4.1-.2.1-.4.1-.5.1-1.6.2-6.8-3-7.4-4.4-.3-.8.2-1 .8-1.1.3-.1.6-.2 1-.2 2.1-.3 4.3-.5 6.6-.6zm52.5 39.3c-2.1-.6-3.8-1.4-4.7-3.3-.2-.5 0-1.5.4-1.9.3-.3 1.4-.1 1.8.2 1.3 1.3 2.5 2.7 2.5 5zm-105.5.8c.2-.5.4-1 .7-1.4 1-1.3 2-2.5 3-3.7.7-.9 1.3-.3 1.8.1.3.3.5 1.1.4 1.3-1.4 1.9-3.4 3.1-5.5 4-.2-.1-.3-.2-.4-.3z"/><path class="st0" d="M365.8 107.6l-103-59.4c-.1-.1-.3-.1-.4-.1h-1.5c-.1 0-.3.1-.4.1l-101.4 58.5c-1.2.7-1.6 2.2-.9 3.4.7 1.2 2.3 1.6 3.4.9l90.1-52-38.3 48.9c-.8 1.1-.7 2.7.4 3.5 1.1.8 2.7.7 3.5-.4l41.8-53.3v52.1c0 1.4 1.1 2.6 2.6 2.6s2.6-1.1 2.6-2.6V57.6l41.8 53.3c.5.7 1.2.9 2 .9.5 0 1.1-.1 1.5-.5 1.1-.8 1.2-2.4.4-3.5L271.7 59l91.7 52.9c.4.3.8.3 1.2.3.8 0 1.8-.4 2.2-1.2.6-1.1.2-2.7-1-3.4zM196.5 469.5l3-2.1L213 477l-2.9 2-2.7-2-4.7 3.3 1 3.2-2.8 2-4.4-16zm5.4 8.1l3.3-2.3-5.1-3.9 1.8 6.2zm113.3 1.4l-3.1-2.2 8.7-3.6.5-9 3.2 2.2-.6 5.8 5.3-2.5 3.1 2.2-8.2 3.4-.5 9.5-3.2-2.3.6-6.1-5.8 2.6zM157.8 149.1c.9 0 1.6-.7 1.6-1.6v-8.2l6.7 8.8c.5.6.9 1 1.7 1h.1c.9 0 1.7-.7 1.7-1.7v-12.1c0-.9-.7-1.6-1.6-1.6-.9 0-1.6.7-1.6 1.6v7.8l-6.5-8.5c-.5-.6-.9-1-1.7-1h-.3c-.9 0-1.7.7-1.7 1.7v12.1c0 1 .7 1.7 1.6 1.7zm29.1.1c4.7 0 8.2-3.6 8.2-7.8 0-4.4-3.3-7.8-8.1-7.8-4.7 0-8.2 3.6-8.2 7.8 0 4.4 3.3 7.8 8.1 7.8zm-4.5-7.8c0-2.6 1.8-4.7 4.6-4.7 2.6 0 4.6 2.2 4.6 4.8s-1.8 4.7-4.6 4.7c-2.8-.1-4.6-2.2-4.6-4.8zm23.4 7.6h4.3c4.8 0 8.1-3.3 8.1-7.6s-3.3-7.6-8.1-7.6h-4.3c-.9 0-1.7.7-1.7 1.7v11.8c.1 1 .7 1.7 1.7 1.7zm1.7-12.2h2.5c2.8 0 4.6 1.8 4.6 4.6 0 2.6-1.8 4.6-4.6 4.6h-2.5v-9.2zm20.3 12.2h8.5c.8 0 1.5-.7 1.5-1.5s-.7-1.5-1.5-1.5h-6.9v-3.2h5.8c.8 0 1.5-.7 1.5-1.5s-.7-1.5-1.5-1.5h-5.8v-3.1h6.8c.8 0 1.5-.7 1.5-1.5s-.7-1.5-1.5-1.5h-8.4c-.9 0-1.7.7-1.7 1.7v11.9c.1 1 .8 1.7 1.7 1.7zm18.7-1.6c1.7 1.3 3.7 1.8 5.8 1.8 3.3 0 5.6-1.7 5.6-4.7 0-2.6-1.7-3.8-4.8-4.6-2.6-.7-3.3-1-3.3-2 0-.7.7-1.4 2-1.4 1 0 2.1.3 3.2 1 .2.1.6.2.8.2.9 0 1.6-.7 1.6-1.5 0-.7-.3-1.2-.7-1.4-1.4-.9-3-1.4-4.8-1.4-3.1 0-5.3 1.8-5.3 4.6 0 3 2 3.9 5.1 4.6 2.5.7 3.1 1 3.1 2s-.8 1.4-2.2 1.4c-1.5 0-2.8-.6-3.9-1.4-.2-.1-.6-.3-.9-.3-.9 0-1.6.7-1.6 1.5-.4.9 0 1.4.3 1.6zm26.3 1.8c2.4 0 4-.7 5.4-2 .3-.2.6-.7.6-1.2 0-.8-.7-1.5-1.6-1.5-.3 0-.7.1-1 .3-.9.8-1.8 1.2-3.3 1.2-2.6 0-4.4-2.2-4.4-4.8s1.8-4.7 4.4-4.7c1.1 0 2.2.3 3.1 1 .2.1.6.3 1 .3.9 0 1.6-.7 1.6-1.6 0-.6-.3-1-.7-1.4-1.3-.9-2.8-1.5-5.1-1.5-4.7 0-8 3.6-8 7.8.3 4.7 3.6 8.1 8 8.1zm16.4-.1c.9 0 1.7-.7 1.7-1.7v-4.6h6.2v4.6c0 .9.7 1.7 1.7 1.7.9 0 1.7-.7 1.7-1.7v-12.1c0-.9-.7-1.7-1.7-1.7-.9 0-1.7.7-1.7 1.7v4.5h-6.2v-4.5c0-.9-.7-1.7-1.7-1.7-.9 0-1.7.7-1.7 1.7v12.1c-.1 1 .6 1.7 1.7 1.7zm25.9.1c4.7 0 8.1-3.6 8.1-7.8 0-4.4-3.3-7.8-8.1-7.8-4.7 0-8.2 3.6-8.2 7.8.1 4.4 3.5 7.8 8.2 7.8zm-4.6-7.8c0-2.6 1.8-4.7 4.6-4.7 2.6 0 4.6 2.2 4.6 4.8s-1.8 4.7-4.6 4.7c-2.7-.1-4.6-2.2-4.6-4.8zm26.8 7.8c4.7 0 8.2-3.6 8.2-7.8 0-4.4-3.3-7.8-8.1-7.8s-8.2 3.6-8.2 7.8c.1 4.4 3.4 7.8 8.1 7.8zm-4.6-7.8c0-2.6 1.8-4.7 4.6-4.7 2.6 0 4.6 2.2 4.6 4.8s-1.8 4.7-4.6 4.7c-2.6-.1-4.6-2.2-4.6-4.8zm23.4 7.7h7.8c.8 0 1.5-.7 1.5-1.5s-.7-1.5-1.5-1.5h-6.2v-10.6c0-.9-.7-1.7-1.7-1.7-.9 0-1.7.7-1.7 1.7v11.9c.1 1 .9 1.7 1.8 1.7zM365.2 492.4c-.7-1.2-2.3-1.6-3.4-1l-90 52 38.3-48.9c.8-1.1.7-2.7-.4-3.5-1.1-.8-2.7-.7-3.5.4l-41.8 53.3v-52.1c0-1.4-1.1-2.6-2.6-2.6s-2.6 1.1-2.6 2.6v52.1l-41.8-53.3c-.8-1.1-2.4-1.2-3.5-.4-1.1.8-1.2 2.4-.4 3.5l38.3 48.9-91.8-52.9c-1.2-.7-2.7-.3-3.4 1-.7 1.2-.3 2.7 1 3.4l103 59.4h.1c.1 0 .1.1.3.1h.4c.1 0 .4.1.5.1.3 0 .4 0 .5-.1h.3c.1 0 .1-.1.3-.1h.1l101.4-58.5c1-.5 1.4-2.2.7-3.4z"/><circle class="st0" cx="372" cy="487.7" r="3.1"/><circle class="st0" cx="150.1" cy="487.7" r="3.1"/><path class="st0" d="M255.2 460.2h3.3v9.6c0 1.1.1 1.9.4 2.4.4.9 1.3 1.3 2.6 1.3s2.2-.4 2.6-1.3c.3-.5.4-1.3.4-2.4v-9.6h3.3v9.6c0 1.7-.3 3-.8 3.9-1 1.7-2.8 2.5-5.5 2.5s-4.5-.8-5.5-2.5c-.5-.9-.8-2.2-.8-3.9v-9.6z"/></svg>